<?xml version="1.0" encoding="UTF-8"?>
<svg version="1.1" xmlns="http://www.w3.org/2000/svg" width="150" height="150">
<path d="M0 0 C49.5 0 99 0 150 0 C150 49.5 150 99 150 150 C100.5 150 51 150 0 150 C0 100.5 0 51 0 0 Z " fill="#020202" transform="translate(0,0)"/>
<path d="M0 0 C3.3825 -0.061875 6.765 -0.12375 10.25 -0.1875 C11.30993164 -0.21481201 12.36986328 -0.24212402 13.46191406 -0.27026367 C14.72600098 -0.28150269 14.72600098 -0.28150269 16.015625 -0.29296875 C16.87446289 -0.3086792 17.73330078 -0.32438965 18.61816406 -0.34057617 C21.48283816 0.06904051 22.85063164 1.113864 25 3 C24.835 4.11375 24.67 5.2275 24.5 6.375 C23.6781514 11.03576436 23.6781514 11.03576436 26 15 C26 18.5 26 18.5 25 22 C19.79080528 25.68352442 14.72618564 25.35590107 8.625 25.1875 C3.860625 25.0946875 3.860625 25.0946875 -1 25 C-0.67 16.75 -0.34 8.5 0 0 Z " fill="#F1F1F1" transform="translate(31,44)"/>
<path d="M0 0 C2.97 0 5.94 0 9 0 C8.98839844 1.13179687 8.97679688 2.26359375 8.96484375 3.4296875 C8.95546546 4.91145669 8.9463653 6.39322765 8.9375 7.875 C8.92912109 8.62136719 8.92074219 9.36773437 8.91210938 10.13671875 C8.79311916 14.19845578 8.79311916 14.19845578 10 18 C11.99954746 18.04254356 14.00041636 18.04080783 16 18 C18.11925604 15.88074396 17.41831017 11.3803907 17.5625 8.4375 C17.60568359 7.63119141 17.64886719 6.82488281 17.69335938 5.99414062 C17.79975262 3.99631195 17.90040888 1.9981793 18 0 C20.97 0 23.94 0 27 0 C27.08126109 2.72977064 27.14061663 5.4571017 27.1875 8.1875 C27.21263672 8.95642578 27.23777344 9.72535156 27.26367188 10.51757812 C27.32357484 15.17004161 27.12467488 18.29241398 24 22 C20.3358247 24.83478427 17.58927015 25.41012197 13 25.375 C11.989375 25.38273437 10.97875 25.39046875 9.9375 25.3984375 C6.54825923 24.93872665 4.70556328 24.07614404 2 22 C0.23855564 19.13184114 -0.24308008 17.01560591 -0.1953125 13.671875 C-0.18886719 12.87265625 -0.18242188 12.0734375 -0.17578125 11.25 C-0.15902344 10.425 -0.14226562 9.6 -0.125 8.75 C-0.11597656 7.90953125 -0.10695313 7.0690625 -0.09765625 6.203125 C-0.07415817 4.13529396 -0.03828908 2.06761005 0 0 Z " fill="#F3F3F3" transform="translate(91,44)"/>
<path d="M0 0 C3.3 0 6.6 0 10 0 C10.9765625 1.79036458 11.953125 3.58072917 12.9296875 5.37109375 C13.91410024 7.16618315 13.91410024 7.16618315 16 8 C16.28875 7.236875 16.5775 6.47375 16.875 5.6875 C18 3 18 3 20 0 C22.1640625 -0.29296875 22.1640625 -0.29296875 24.625 -0.1875 C25.44226563 -0.16042969 26.25953125 -0.13335937 27.1015625 -0.10546875 C28.04128906 -0.05326172 28.04128906 -0.05326172 29 0 C24.50856164 8.44905822 24.50856164 8.44905822 21.75 11.4375 C19.0971397 15.32204543 19.17908859 19.38846883 19 24 C19.66 24.33 20.32 24.66 21 25 C16.71 25 12.42 25 8 25 C8.66 24.67 9.32 24.34 10 24 C10.49056995 15.3071005 6.93873098 10.22955739 1.93359375 3.58984375 C0 1 0 1 0 0 Z " fill="#F3F3F3" transform="translate(58,44)"/>
<path d="M0 0 C2.0234375 0.65234375 2.0234375 0.65234375 4.0234375 3.65234375 C4.68097175 10.55645334 4.68097175 10.55645334 2.5234375 14.15234375 C-1.0007642 16.26686477 -3.97229989 16.58585283 -7.9765625 15.65234375 C-10.5390625 13.58984375 -10.5390625 13.58984375 -11.9765625 10.65234375 C-11.9765625 6.7822699 -11.4657537 4.46766242 -9.4765625 1.15234375 C-6.10948463 -0.86790297 -3.80920172 -0.46191317 0 0 Z " fill="#0D0D0D" transform="translate(113.9765625,80.34765625)"/>
<path d="M0 0 C9.10714286 -0.60714286 9.10714286 -0.60714286 13.125 2.125 C15.34903824 5.53519196 15.74812849 7.00998139 15 11 C13.625 13.875 13.625 13.875 11 16 C7.55579372 16.42647695 4.49320317 16.229816 1 16 C0.67 10.72 0.34 5.44 0 0 Z " fill="#121212" transform="translate(42,80)"/>
<path d="M0 0 C1.65 0 3.3 0 5 0 C4.67 2.31 4.34 4.62 4 7 C6.97 7 9.94 7 13 7 C13 5.02 13 3.04 13 1 C12.34 0.67 11.68 0.34 11 0 C12.98 0 14.96 0 17 0 C16.01 0.495 16.01 0.495 15 1 C15.33 5.95 15.66 10.9 16 16 C14.68 15.67 13.36 15.34 12 15 C12.33 13.02 12.66 11.04 13 9 C10.03 9 7.06 9 4 9 C4.33 11.31 4.66 13.62 5 16 C3.68 15.67 2.36 15.34 1 15 C1.33 10.38 1.66 5.76 2 1 C1.34 0.67 0.68 0.34 0 0 Z " fill="#D4D4D4" transform="translate(80,80)"/>
<path d="M0 0 C9.10714286 -0.60714286 9.10714286 -0.60714286 13.125 2.125 C15.34903824 5.53519196 15.74812849 7.00998139 15 11 C13.625 13.875 13.625 13.875 11 16 C7.55579372 16.42647695 4.49320317 16.229816 1 16 C0.67 10.72 0.34 5.44 0 0 Z M4 1 C2.69452245 2.08169646 2.69452245 2.08169646 2.8671875 4.6875 C2.86976562 5.780625 2.87234375 6.87375 2.875 8 C2.87242188 9.093125 2.86984375 10.18625 2.8671875 11.3125 C2.69452245 13.91830354 2.69452245 13.91830354 4 15 C9.02499694 14.71530797 9.02499694 14.71530797 13 12 C13.58369443 8.58461856 13.58369443 8.58461856 13 5 C10.87314071 2.4482714 10.87314071 2.4482714 8 1 C6.68 1 5.36 1 4 1 Z " fill="#E9E9E9" transform="translate(42,80)"/>
<path d="M0 0 C2.0234375 0.65234375 2.0234375 0.65234375 4.0234375 3.65234375 C4.68097175 10.55645334 4.68097175 10.55645334 2.5234375 14.15234375 C-1.0007642 16.26686477 -3.97229989 16.58585283 -7.9765625 15.65234375 C-10.5390625 13.58984375 -10.5390625 13.58984375 -11.9765625 10.65234375 C-11.9765625 6.7822699 -11.4657537 4.46766242 -9.4765625 1.15234375 C-6.10948463 -0.86790297 -3.80920172 -0.46191317 0 0 Z M-8.2265625 2.27734375 C-10.19642084 4.57542961 -10.19642084 4.57542961 -10.4765625 7.65234375 C-10.1707866 10.70158366 -10.1707866 10.70158366 -8.4140625 13.08984375 C-5.94113487 15.00055234 -5.94113487 15.00055234 -2.2890625 14.52734375 C-1.1959375 14.23859375 -0.1028125 13.94984375 1.0234375 13.65234375 C2.56930626 10.56060623 2.31703271 8.05804823 2.0234375 4.65234375 C0.41794603 2.12923364 0.41794603 2.12923364 -1.9765625 0.65234375 C-5.89868475 0.26201671 -5.89868475 0.26201671 -8.2265625 2.27734375 Z " fill="#D1D1D1" transform="translate(113.9765625,80.34765625)"/>
<path d="M0 0 C0.66 0 1.32 0 2 0 C3.98 5.28 5.96 10.56 8 16 C7.01 16 6.02 16 5 16 C4.67 14.02 4.34 12.04 4 10 C2.02 10 0.04 10 -2 10 C-2.33 11.98 -2.66 13.96 -3 16 C-3.99 15.67 -4.98 15.34 -6 15 C-5.73445313 14.41992188 -5.46890625 13.83984375 -5.1953125 13.2421875 C-3.22438666 8.88313255 -1.40950748 4.58089932 0 0 Z " fill="#E4E4E4" transform="translate(67,80)"/>
<path d="M0 0 C1.98 0 3.96 0 6 0 C5.01 0.495 5.01 0.495 4 1 C4 5.95 4 10.9 4 16 C3.01 16 2.02 16 1 16 C0.67 10.72 0.34 5.44 0 0 Z " fill="#ADADAD" transform="translate(30,80)"/>
<path d="M0 0 C2.64 0 5.28 0 8 0 C8.625 1.875 8.625 1.875 9 4 C7 6 7 6 3.375 6.125 C2.26125 6.08375 1.1475 6.0425 0 6 C0 4.02 0 2.04 0 0 Z " fill="#202020" transform="translate(39,58)"/>
<path d="M0 0 C2.31 0 4.62 0 7 0 C7.38218767 1.65614657 7.71395102 3.32457024 8 5 C7 6 7 6 3.4375 6.0625 C2.303125 6.041875 1.16875 6.02125 0 6 C0 4.02 0 2.04 0 0 Z " fill="#2E2E2E" transform="translate(39,48)"/>
<path d="M0 0 C9.35384615 -0.49230769 9.35384615 -0.49230769 12.625 2 C13.07875 2.66 13.5325 3.32 14 4 C11 4 11 4 8 2 C6.35 2 4.7 2 3 2 C2.67 6.29 2.34 10.58 2 15 C1.67 15 1.34 15 1 15 C0.67 10.05 0.34 5.1 0 0 Z " fill="#B2B2B2" transform="translate(42,80)"/>
<path d="M0 0 C0.66 0 1.32 0 2 0 C4.125 6.75 4.125 6.75 3 9 C1.68 9 0.36 9 -1 9 C-2.25541557 5.23375329 -1.37061958 3.62811066 0 0 Z " fill="#959595" transform="translate(67,80)"/>
<path d="M0 0 C0.99 0.33 1.98 0.66 3 1 C2.67 2.65 2.34 4.3 2 6 C0.35 6.33 -1.3 6.66 -3 7 C-1.125 1.125 -1.125 1.125 0 0 Z " fill="#070707" transform="translate(106,56)"/>
<path d="M0 0 C0.66 0.33 1.32 0.66 2 1 C1.67 1.66 1.34 2.32 1 3 C0.85624578 6.37822416 0.92463652 8.77390955 2 12 C1.01 11.67 0.02 11.34 -1 11 C-2.23076923 4.6 -2.23076923 4.6 -1.0625 1.5625 C-0.711875 1.046875 -0.36125 0.53125 0 0 Z " fill="#E4E4E4" transform="translate(104,82)"/>
</svg>
